# xmcd
# 
# Track frame offsets:
#     150
#     19493
#     35885
#     52708
#     74799
#     93020
#     112523
# 
# Disc length: 1751
# 
# Revision: 0
# Processed by: cddbd v1.5.2PL0 Copyright (c) Steve Scherf et al.
# Submitted via: fre:ac v1.0.17
# 
DISCID=5406d507
DTITLE=星井美希（CV：長谷川明子） - THE IDOLM@STER MASTER ARTIST 3 04 星井美希
DYEAR=2015
DGENRE=
TTITLE0=Nostalgia (M@STER VERSION)
TTITLE1=きゅんっ!ヴァンパイアガール (M@STER VERSION)
TTITLE2=Catch You Catch Me
TTITLE3=高鳴る
TTITLE4=99 Nights (M@STER VERSION)
TTITLE5=Nostalgia (M@STER VERSION) (オリジナル・カラオケ)
TTITLE6=ONLY MY NOTE (M@STER VERSION) (BONUS TRACK]\n
EXTD=
EXTT0=
EXTT1=
EXTT2=
EXTT3=
EXTT4=
EXTT5=
EXTT6=
PLAYORDER=
